Coordinates
version=1
nRows=17
nColumns=40
inDegrees=yes

Units are S.I. units (second, meters, Newtons, ...)
If the header above contains a line with 'inDegrees', this indicates whether rotational values are in degrees (yes) or radians (no).

endheader
time	pelvis_tilt	pelvis_list	pelvis_rotation	pelvis_tx	pelvis_ty	pelvis_tz	hip_flexion_r	hip_adduction_r	hip_rotation_r	knee_angle_r	knee_angle_r_beta	ankle_angle_r	subtalar_angle_r	mtp_angle_r	hip_flexion_l	hip_adduction_l	hip_rotation_l	knee_angle_l	knee_angle_l_beta	ankle_angle_l	subtalar_angle_l	mtp_angle_l	lumbar_extension	lumbar_bending	lumbar_rotation	arm_flex_r	arm_add_r	arm_rot_r	elbow_flex_r	pro_sup_r	wrist_flex_r	wrist_dev_r	arm_flex_l	arm_add_l	arm_rot_l	elbow_flex_l	pro_sup_l	wrist_flex_l	wrist_dev_l
      3.10000000	      5.71543169	      1.85170975	     -0.75430281	     -0.40839161	      0.80305055	     -0.75263860	     44.74401860	      3.73912484	     -1.91428913	     83.97085878	      1.46556796	     27.09118073	      0.00000000	      0.00000000	     61.68103801	      1.08597234	      3.25225087	     13.81744577	      0.24115992	     -8.83167535	      0.00000000	      0.00000000	    -40.88709682	     -1.16303183	      0.83613612	     89.93891377	    -11.60798525	     10.68475140	     54.18971896	     86.75381513	      0.00000000	      0.00000000	     89.93998716	     -7.39757956	      7.35002233	     52.60911051	     84.81249481	      0.00000000	      0.00000000
      3.10500000	      5.72281161	      1.89357452	     -0.78424633	     -0.40816801	      0.80259246	     -0.75261520	     44.78295781	      3.72608922	     -1.87459819	     84.09716654	      1.46777245	     27.16155036	      0.00000000	      0.00000000	     61.71637886	      1.07200252	      3.12024917	     13.81284295	      0.24107959	     -8.84428056	      0.00000000	      0.00000000	    -40.92086967	     -1.20833923	      0.81716591	     89.93905245	    -11.60458087	     10.70069426	     54.25058448	     86.66432066	      0.00000000	      0.00000000	     89.94011600	     -7.40125015	      7.31216886	     52.63029134	     85.15879126	      0.00000000	      0.00000000
      3.11000000	      5.75241365	      1.91856011	     -0.80597634	     -0.40793194	      0.80222472	     -0.75260163	     44.77976377	      3.74613581	     -1.79822518	     84.18792696	      1.46935652	     27.18748855	      0.00000000	      0.00000000	     61.72143067	      1.07068251	      3.11335705	     13.79969867	      0.24085018	     -8.81331404	      0.00000000	      0.00000000	    -40.96928196	     -1.22967216	      0.78972018	     89.93924035	    -11.54966359	     10.68332315	     54.25974152	     86.62702744	      0.00000000	      0.00000000	     89.94028728	     -7.44264139	      7.27895268	     52.64762619	     85.25923950	      0.00000000	      0.00000000
      3.11500000	      5.76638159	      1.92104571	     -0.80031749	     -0.40770729	      0.80176445	     -0.75261752	     44.80722742	      3.75033793	     -1.78733076	     84.30500260	      1.47139987	     27.25361032	      0.00000000	      0.00000000	     61.74897327	      1.07648835	      3.19946706	     13.79028624	      0.24068590	     -8.81332048	      0.00000000	      0.00000000	    -41.00141714	     -1.21283275	      0.74503591	     89.93946170	    -11.46249328	     10.61475600	     54.25078186	     86.66814408	      0.00000000	      0.00000000	     89.94036542	     -7.46236412	      7.26680863	     52.65910796	     84.73061582	      0.00000000	      0.00000000
      3.12000000	      5.76668359	      1.90826453	     -0.78589902	     -0.40749560	      0.80125739	     -0.75265776	     44.84385928	      3.75544512	     -1.80727041	     84.40489208	      1.47314327	     27.31154475	      0.00000000	      0.00000000	     61.83182045	      1.08492515	      3.15492795	     13.86076414	      0.24191597	     -8.76718049	      0.00000000	      0.00000000	    -41.02369885	     -1.18612156	      0.74910994	     89.93969607	    -11.48786364	     10.65442164	     54.29912958	     86.69406480	      0.00000000	      0.00000000	     89.94057506	     -7.47249007	      7.26237986	     52.68557150	     85.01744848	      0.00000000	      0.00000000
      3.12500000	      5.73914957	      1.82583492	     -0.81000103	     -0.40737184	      0.80070468	     -0.75232317	     44.92392155	      3.91129540	     -1.80657502	     84.48190949	      1.47448748	     27.29136865	      0.00000000	      0.00000000	     61.91627786	      0.99227224	      3.24335254	     13.84932068	      0.24171624	     -8.78182708	      0.00000000	      0.00000000	    -41.01607315	     -1.14615182	      0.77451268	     89.93989359	    -11.40374870	     10.61516766	     54.30834224	     86.61259829	      0.00000000	      0.00000000	     89.94084597	     -7.48091248	      7.16711895	     52.70745221	     85.10651605	      0.00000000	      0.00000000
      3.13000000	      5.72448779	      1.82729797	     -0.82813489	     -0.40711257	      0.80015093	     -0.75231573	     44.97831904	      3.94948935	     -1.76455202	     84.59602055	      1.47647909	     27.40807345	      0.00000000	      0.00000000	     62.00743987	      0.97829352	      3.21780083	     13.90196491	      0.24263506	     -8.75934097	      0.00000000	      0.00000000	    -41.00985461	     -1.15141101	      0.76978750	     89.93995618	    -11.38625922	     10.62604828	     54.33817215	     86.69142935	      0.00000000	      0.00000000	     89.94111413	     -7.46271237	      7.09218722	     52.69136274	     85.01074788	      0.00000000	      0.00000000
      3.13500000	      5.73419961	      1.82207078	     -0.82098705	     -0.40686204	      0.79970460	     -0.75235069	     44.99867445	      3.96113364	     -1.76290637	     84.69212241	      1.47815639	     27.42792659	      0.00000000	      0.00000000	     62.03925592	      0.98586831	      3.26470353	     13.90073749	      0.24261364	     -8.73926831	      0.00000000	      0.00000000	    -41.03858345	     -1.12859005	      0.75397605	     89.94026110	    -11.33650888	     10.56108933	     54.34400454	     86.64602377	      0.00000000	      0.00000000	     89.94107133	     -7.50003525	      7.14070664	     52.74210631	     85.05397429	      0.00000000	      0.00000000
      3.14000000	      5.74758103	      1.84344567	     -0.81566370	     -0.40660186	      0.79924016	     -0.75243359	     45.02217332	      3.95505741	     -1.73151440	     84.80459169	      1.48011935	     27.51951522	      0.00000000	      0.00000000	     62.06889375	      1.01586888	      3.26208868	     13.90016075	      0.24260357	     -8.71821258	      0.00000000	      0.00000000	    -41.06719866	     -1.13317859	      0.74542782	     89.94044653	    -11.34359807	     10.56922267	     54.39704411	     86.61769023	      0.00000000	      0.00000000	     89.94128557	     -7.45296996	      7.06253077	     52.72156622	     85.11052566	      0.00000000	      0.00000000
      3.14500000	      5.78726366	      1.88655865	     -0.83475520	     -0.40637467	      0.79888936	     -0.75238988	     45.01143458	      3.95930090	     -1.66011166	     84.91105534	      1.48197749	     27.57306960	      0.00000000	      0.00000000	     62.07724674	      1.02272794	      3.21222042	     13.92342798	      0.24300966	     -8.73659511	      0.00000000	      0.00000000	    -41.13361725	     -1.17790267	      0.72059164	     89.94072337	    -11.32275809	     10.54293334	     54.42679565	     86.61869293	      0.00000000	      0.00000000	     89.94144551	     -7.44833782	      7.00948848	     52.76237460	     85.14075618	      0.00000000	      0.00000000
      3.15000000	      5.73762396	      1.88441751	     -0.92163356	     -0.40615832	      0.79825798	     -0.75212258	     45.11641653	      4.12606779	     -1.48593872	     84.99256973	      1.48340018	     27.48950430	      0.00000000	      0.00000000	     62.28942726	      0.92828033	      2.92634810	     14.17042867	      0.24732064	     -8.46507562	      0.00000000	      0.00000000	    -41.06001841	     -1.24145566	      0.78713111	     89.94115492	    -11.25824322	     10.87198585	     54.30456620	     82.98009128	      0.00000000	      0.00000000	     89.94191714	     -7.39662600	      7.29872810	     52.64910675	     81.62008102	      0.00000000	      0.00000000
      3.15500000	      5.75697306	      1.86171216	     -0.80329996	     -0.40594039	      0.79788997	     -0.75246488	     45.11691164	      4.01731287	     -1.65016607	     85.09063116	      1.48511168	     27.58728734	      0.00000000	      0.00000000	     62.16475029	      1.06537495	      3.47603186	     13.84271206	      0.24160090	     -8.69589403	      0.00000000	      0.00000000	    -41.13065445	     -1.12930249	      0.69095311	     89.94096744	    -11.23488976	     10.39225237	     54.45195008	     86.70247509	      0.00000000	      0.00000000	     89.94170041	     -7.41731029	      7.03584604	     52.79370522	     84.18081513	      0.00000000	      0.00000000
      3.16000000	      5.76972648	      1.89970942	     -0.82868382	     -0.40567353	      0.79746533	     -0.75247902	     45.12815189	      4.02673400	     -1.59160215	     85.19436965	      1.48692225	     27.79596201	      0.00000000	      0.00000000	     62.19306854	      1.06630668	      3.17141813	     13.84523893	      0.24164501	     -8.70234486	      0.00000000	      0.00000000	    -41.16339442	     -1.17461868	      0.70507470	     89.94117713	    -11.31262454	     10.49488561	     54.55173430	     86.58403045	      0.00000000	      0.00000000	     89.94175397	     -7.39691853	      6.93385617	     52.82568010	     85.22559650	      0.00000000	      0.00000000
      3.16500000	      5.74954120	      1.89751142	     -0.83785709	     -0.40546204	      0.79694642	     -0.75243602	     45.18471636	      4.07505545	     -1.55615203	     85.28790229	      1.48855471	     27.88025268	      0.00000000	      0.00000000	     62.24626429	      1.05935415	      3.16998873	     13.81736734	      0.24115855	     -8.69398984	      0.00000000	      0.00000000	    -41.16382257	     -1.17879490	      0.71280958	     89.94128174	    -11.29562999	     10.43659561	     54.59586057	     86.67097187	      0.00000000	      0.00000000	     89.94183427	     -7.37997534	      6.94008562	     52.87639626	     84.83016532	      0.00000000	      0.00000000
      3.17000000	      5.78282636	      1.93206409	     -0.90306147	     -0.40521875	      0.79659459	     -0.75221048	     45.18034450	      4.14324984	     -1.45451259	     85.38269625	      1.49020917	     27.93178888	      0.00000000	      0.00000000	     62.22901366	      1.02031171	      3.09523372	     13.78917020	      0.24066642	     -8.68186380	      0.00000000	      0.00000000	    -41.21862322	     -1.25497051	      0.72298798	     89.94130432	    -11.26069336	     10.43024328	     54.63326192	     86.65865766	      0.00000000	      0.00000000	     89.94202693	     -7.39102457	      6.91282390	     52.90846492	     85.02127381	      0.00000000	      0.00000000
      3.17500000	      5.78169563	      1.94762734	     -0.90003722	     -0.40500515	      0.79615300	     -0.75215941	     45.21020009	      4.17020787	     -1.42289214	     85.46882487	      1.49171240	     27.97160638	      0.00000000	      0.00000000	     62.25023874	      1.03459948	      3.14434971	     13.74852758	      0.23995707	     -8.70176852	      0.00000000	      0.00000000	    -41.23841761	     -1.27613696	      0.70348160	     89.94148000	    -11.21128211	     10.33071684	     54.64510125	     86.69544668	      0.00000000	      0.00000000	     89.94203975	     -7.37882666	      6.89048232	     52.94674213	     84.80055125	      0.00000000	      0.00000000
      3.18000000	      5.79233764	      1.92328078	     -0.84828684	     -0.40475483	      0.79572931	     -0.75232080	     45.21406731	      4.20309242	     -1.41210265	     85.54203874	      1.49299022	     28.12187641	      0.00000000	      0.00000000	     62.29165022	      1.07888407	      3.11024562	     13.76352809	      0.24021888	     -8.71558018	      0.00000000	      0.00000000	    -41.26605914	     -1.21589138	      0.70780027	     89.94162380	    -11.25207768	     10.30452976	     54.70351336	     86.67646747	      0.00000000	      0.00000000	     89.94216715	     -7.32387712	      6.85270031	     52.97109397	     84.75918775	      0.00000000	      0.00000000
